<?xml version="1.0" encoding="UTF-8" standalone="no"?>
<!DOCTYPE svg PUBLIC "-//W3C//DTD SVG 1.1//EN" "http://www.w3.org/Graphics/SVG/1.1/DTD/svg11.dtd">
<!-- Created with Vectornator (http://vectornator.io/) -->
<svg height="100%" stroke-miterlimit="10" style="fill-rule:nonzero;clip-rule:evenodd;stroke-linecap:round;stroke-linejoin:round;" version="1.1" viewBox="0 0 1200 750" width="100%" xml:space="preserve" xmlns="http://www.w3.org/2000/svg" xmlns:vectornator="http://vectornator.io" xmlns:xlink="http://www.w3.org/1999/xlink">
<defs/>
<g id="Layer-2" vectornator:layerName="Layer 2">
<path d="M1060.96 277.159C991.698 265.616 921.388 258.815 851.175 258.088C729.475 256.827 607.727 259.244 486.096 263.537C415.985 266.011 352.307 270.039 282.367 278.032C220.58 285.093 267.391 279.119 198.996 287.369C191.836 288.233 130.344 293.393 110.857 297.068C97.1317 299.658 50.7895 311.767 25.2434 335.672C15.3958 344.888 3.03221 366.958 10.715 383.803C27.4531 420.504 81.6201 430.142 100.669 435.458C145.83 448.062 194.429 450.178 220.546 451.505C232.475 452.111 378.452 447.334 390.329 448.607C418.379 451.612 527.443 445.655 555.644 446.432C689.276 450.114 658.37 447.471 763.355 447.172C861.68 446.893 816.035 446.473 914.313 445.66C968.578 445.212 1013.2 441.467 1047.54 436.067C1087.5 429.784 1141.39 421.323 1175.39 397.036C1216.98 367.324 1170.65 328.255 1139.97 318.026C1029.56 281.225 911.982 282.608 796.685 282.608" fill="none" opacity="1" stroke="#1e1e1e" stroke-linecap="round" stroke-linejoin="round" stroke-width="7"/>
<path d="M969.345 330.565C958.127 329.319 946.041 324.355 934.904 322.521C911.952 318.741 888.512 318.869 865.267 317.992C847.933 317.338 826.407 319.595 810.916 328.749C802.997 333.428 799.034 343.884 808.652 349.13C818.276 354.38 831.592 356.579 842.055 358.189C870.24 362.525 898.87 359.825 926.978 356.49C938.481 355.126 950.985 353.25 960.381 345.733C962.581 343.974 966.035 337.31 964.344 334.41C961.717 329.907 954.796 325.693 951.323 323.087" fill="none" opacity="0" stroke="#1e1e1e" stroke-linecap="round" stroke-linejoin="round" stroke-width="2"/>
<path d="M1098.92 192.618C1096.85 190.55 1094.14 188.96 1091.3 188.265C1084.49 186.597 1077.56 185.446 1070.62 184.455C1060.77 183.048 1054.78 183.367 1045.04 183.367C1026.81 183.367 1007.03 184.064 989.533 189.897C982.474 192.25 971.212 197.043 968.309 204.591C967.613 206.401 967.378 209.499 968.853 211.121C973.296 216.009 984.816 217.978 990.622 219.285C994.579 220.175 998.582 220.864 1002.59 221.461C1030.47 225.613 1059.97 226.249 1088.04 223.638C1094.63 223.025 1101.23 222.094 1107.63 220.373C1110.13 219.698 1115.82 217.046 1117.97 215.475C1129.08 207.322 1117.61 200.269 1111.14 196.039C1108.74 194.47 1107.71 194.198 1105.07 193.08C1098.72 190.395 1087.03 189.539 1083.5 189.761" fill="none" opacity="0" stroke="#1e1e1e" stroke-linecap="round" stroke-linejoin="round" stroke-width="2"/>
<path d="M729.411 568.938C719.051 566.307 708.534 563.375 697.814 562.766C679.208 561.708 661.571 560.318 640.108 562.207C633.79 562.763 633.938 562.653 629.396 563.389C626.308 563.89 624.744 564.468 615.811 566.513C613.645 567.008 608.156 569.365 606.171 570.363C602.44 572.238 590.887 579.843 596.48 585.574C600.252 589.439 604.016 590.358 605.829 590.932C611.613 592.763 616.664 593.147 618.189 593.317C626.785 594.276 624.801 594.07 627.883 594.374C655.277 597.068 661.17 595.638 682.301 594.848C694.472 594.393 706.415 593.89 718.408 591.662C724.842 590.466 728.082 589.813 733.93 587.755C735.721 587.125 737.543 586.531 739.217 585.636C744.865 582.619 744.188 578.041 739.324 574.595C731.033 568.721 720.144 566.473 710.459 564.166C702.944 562.375 695.448 561.367 687.813 560.306" fill="none" opacity="0" stroke="#1e1e1e" stroke-linecap="round" stroke-linejoin="round" stroke-width="2"/>
<path d="M593.285 349.515C593.203 349.151 593.351 348.629 593.04 348.425C590.702 346.886 588.343 345.162 585.629 344.478C575.662 341.969 565.474 340.385 555.301 338.921C542.721 337.112 529.855 336.921 517.166 336.834C499.853 336.715 482.389 336.899 465.142 338.666C452.398 339.972 438.965 342.51 426.994 347.229C424.229 348.319 420.92 349.041 419.115 351.402C418.609 352.064 417.966 353.2 418.514 353.827C420.221 355.776 427.404 358.276 429.721 358.867C439.188 361.283 449.427 362.14 459.1 363.263C496.002 367.55 533.283 367.013 570.347 365.654C581.181 365.257 593.727 365.73 604.095 361.971C604.722 361.744 609.126 360.171 609.443 358.252C610.411 352.375 604.413 350.594 600.105 348.785C588.178 343.778 574.518 342.442 561.837 341.003C557.742 340.539 553.65 340.002 549.536 339.758C538.357 339.094 527.021 339.383 515.827 339.539" fill="none" opacity="0" stroke="#1e1e1e" stroke-linecap="round" stroke-linejoin="round" stroke-width="2"/>
</g>
</svg>
